<svg display="none" xmlns="http://www.w3.org/2000/svg">
    <symbol id="bottom-arrow" viewBox="0 0 12 9" >
        <path d="M2.20041 0.439832C1.69774 -0.146611 0.879671 -0.146611 0.377002 0.439832C-0.125667 1.02628 -0.125667 1.9807 0.377002 2.56714L5.0883 8.06365C5.59096 8.6501 6.40903 8.6501 6.9117 8.06365L11.623 2.56714C12.1257 1.9807 12.1257 1.02628 11.623 0.439832C11.1204 -0.146611 10.3023 -0.146611 9.79956 0.439832L6 4.87269L2.20041 0.439832Z" fill="#333333"/>
    </symbol>
    <symbol id="right-arrow"  viewBox="0 0 10 13">
        <path d="M1.18812 10.0513C0.60168 10.554 0.60168 11.3721 1.18812 11.8747C1.77457 12.3774 2.72899 12.3774 3.31543 11.8747L8.81194 7.16342C9.39839 6.66076 9.39839 5.84269 8.81194 5.34002L3.31543 0.628764C2.72899 0.126064 1.77457 0.126064 1.18812 0.628764C0.60168 1.13136 0.60168 1.94946 1.18812 2.45216L5.62098 6.25172L1.18812 10.0513Z" fill="#333333"/>
    </symbol>
    <symbol id="cloud" viewBox="0 0 13 11">
        <path d="M10.6356 3.84954C10.6329 3.84954 10.6315 3.84954 10.6288 3.84954C10.5242 1.70051 9.14907 0 7.46952 0C5.9191 0 4.62955 1.44799 4.35643 3.35864C4.32109 3.35687 4.28442 3.35511 4.24909 3.35511C3.09407 3.35511 2.11979 4.34928 1.80182 5.71428C1.7529 5.709 1.70262 5.70545 1.65235 5.70545C0.740566 5.70545 0 6.66607 0 7.85271C0 9.03938 0.739208 10 1.65099 10C1.66458 10 10.6343 10 10.6343 10C11.9415 10 13 8.62264 13 6.92563C13 5.22867 11.9428 3.84954 10.6356 3.84954Z"/>
    </symbol>
    <symbol id="time" viewBox="0 0 13 13">
        <path d="M6.5 0C2.91005 0 0 2.91005 0 6.5C0 10.0899 2.91005 13 6.5 13C10.0899 13 13 10.0899 13 6.5C13 2.91005 10.0899 0 6.5 0ZM8.64045 9.55955L5.85 6.7691V2.6H7.15V6.2309L9.55955 8.64045L8.64045 9.55955Z"/>
    </symbol>
    <symbol id="trash" viewBox="0 0 13 16">
        <path d="M4.875 0L4.0625 0.8H0.8125C0.325 0.8 0 1.12 0 1.6C0 2.08 0.325 2.4 0.8125 2.4H2.4375H10.5625H12.1875C12.675 2.4 13 2.08 13 1.6C13 1.12 12.675 0.8 12.1875 0.8H8.9375L8.125 0H4.875ZM0.8125 4V14.4C0.8125 15.28 1.54375 16 2.4375 16H10.5625C11.4563 16 12.1875 15.28 12.1875 14.4V4H0.8125ZM4.0625 5.6C4.55 5.6 4.875 5.92 4.875 6.4V13.6C4.875 14.08 4.55 14.4 4.0625 14.4C3.575 14.4 3.25 14.08 3.25 13.6V6.4C3.25 5.92 3.575 5.6 4.0625 5.6ZM8.9375 5.6C9.425 5.6 9.75 5.92 9.75 6.4V13.6C9.75 14.08 9.425 14.4 8.9375 14.4C8.45 14.4 8.125 14.08 8.125 13.6V6.4C8.125 5.92 8.45 5.6 8.9375 5.6Z" fill="#707070"/>
    </symbol>
    <symbol id="folder" viewBox="0 0 48 48">
        <path d="M40 12H22L18 8H8C5.8 8 4 9.8 4 12V20H44V16C44 13.8 42.2 12 40 12Z" fill="#8f8f8f"/>
        <path d="M40 12H8C5.8 12 4 13.8 4 16V36C4 38.2 5.8 40 8 40H40C42.2 40 44 38.2 44 36V16C44 13.8 42.2 12 40 12Z" fill="#b0b0b0"/>
    </symbol>
    <symbol id="folder-open" viewBox="0 0 48 48">
        <path d="M38 12H22L18 8H8C5.8 8 4 9.8 4 12V36C4 38.2 5.8 40 8 40H39C40.7 40 42 38.7 42 37V16C42 13.8 40.2 12 38 12Z" fill="#8f8f8f"/>
        <path d="M42.2 18H15.3C13.4 18 11.7 19.4 11.4 21.3L8 40H39.7C41.6 40 43.3 38.6 43.6 36.7L46.1 22.7C46.6 20.3 44.7 18 42.2 18Z" fill="#b0b0b0"/>
    </symbol>
    <symbol id="folder-large" viewBox="0 0 48 48">
        <path d="M40 12H22L18 8H8C5.8 8 4 9.8 4 12V20H44V16C44 13.8 42.2 12 40 12Z" fill="#f6df8f"/>
        <path d="M40 12H8C5.8 12 4 13.8 4 16V36C4 38.2 5.8 40 8 40H40C42.2 40 44 38.2 44 36V16C44 13.8 42.2 12 40 12Z" fill="#faebb6"/>
    </symbol>
    <symbol id="folder-empty" viewBox="0 0 48 48">
        <path d="M40 12H22L18 8H8C5.8 8 4 9.8 4 12V20H44V16C44 13.8 42.2 12 40 12Z" fill="#bdbdbd"/>
        <path d="M40 12H8C5.8 12 4 13.8 4 16V36C4 38.2 5.8 40 8 40H40C42.2 40 44 38.2 44 36V16C44 13.8 42.2 12 40 12Z" fill="#d0d0d0"/>
    </symbol>
    <symbol id="empry-file" viewBox="0 0 51 56" >
        <path d="M48 55.5H3C1.61929 55.5 0.5 54.3807 0.5 53V3C0.5 1.61929 1.61929 0.5 3 0.5H31.9786C32.6063 0.5 33.211 0.736133 33.6727 1.16148L42.1597 8.98168L42.1612 8.98309L49.7017 15.989C50.2108 16.462 50.5 17.1256 50.5 17.8205V53C50.5 54.3807 49.3807 55.5 48 55.5Z" fill="#FBFDFD" stroke="#DFDFDF"/>
        <line x1="50" y1="16.5" x2="32" y2="16.5" stroke="#DFDFDF"/>
        <line x1="32.5" x2="32.5" y2="16" stroke="#DFDFDF"/>
    </symbol>
    <symbol id="dot" viewBox="0 0 8 8">
       <path d="M4 8C6.20914 8 8 6.20914 8 4C8 1.79086 6.20914 0 4 0C1.79086 0 0 1.79086 0 4C0 6.20914 1.79086 8 4 8Z" fill="#6B6B6B"/>
    </symbol>
    <symbol id="heart" viewBox="0 0 15 18">
        <path d="M12.3885 1.46984C11.8317 0.644006 10.9557 0.169573 9.70905 0.0186222C9.60806 0.0070296 9.50154 0 9.39197 0C8.28658 0 7.18534 0.585386 6.50002 1.51538C5.81415 0.585386 4.71335 0 3.60851 0C3.49908 0 3.39311 0.0070296 3.29012 0.0186222C2.04533 0.169573 1.16955 0.644253 0.612488 1.46959C0.0600857 2.28777 -0.119994 3.397 0.0776748 4.76625C0.366312 6.75274 2.64522 9.17189 4.47599 11.116L4.51783 11.1605C5.02766 11.7028 5.4682 12.1706 5.75501 12.5192C5.7938 12.568 6.14336 13 6.52606 13C6.91113 13 7.25293 12.5616 7.28396 12.5196C7.58877 12.1464 8.08367 11.6174 8.57238 11.0958C10.3828 9.15705 12.6358 6.74431 12.9216 4.76547C13.1201 3.39725 12.9413 2.28851 12.3885 1.46984Z" fill="#6B6B6B"/>
    </symbol>
    <symbol id="horizontal-menu" viewBox="0 0 20 5">
        <path d="M17.5862 0C16.2553 0 15.1724 1.08283 15.1724 2.41379C15.1724 3.74476 16.2553 4.82759 17.5862 4.82759C18.9172 4.82759 20 3.74476 20 2.41379C20 1.08283 18.9172 0 17.5862 0Z" fill="#6B6B6B"/>
        <path d="M2.41379 0C1.08283 0 0 1.08283 0 2.41379C0 3.74476 1.08283 4.82759 2.41379 4.82759C3.74476 4.82759 4.82759 3.74476 4.82759 2.41379C4.82759 1.08283 3.74476 0 2.41379 0Z" fill="#6B6B6B"/>
        <path d="M10 0C8.66904 0 7.58621 1.08283 7.58621 2.41379C7.58621 3.74476 8.66904 4.82759 10 4.82759C11.331 4.82759 12.4138 3.74476 12.4138 2.41379C12.4138 1.08283 11.331 0 10 0Z" fill="#6B6B6B"/>
    </symbol>
    <symbol id="grid" viewBox="0 0 16 16">
        <path d="M4 4H0V0H4V4ZM10 0H6V4H10V0ZM16 0H12V4H16V0ZM4 6H0V10H4V6ZM10 6H6V10H10V6ZM16 6H12V10H16V6ZM4 12H0V16H4V12ZM10 12H6V16H10V12ZM16 12H12V16H16V12Z"/>
    </symbol>
    <symbol id="list" viewBox="0 0 13 9">
        <path d="M13 7.95181H2.81396V9.93977H13V7.95181Z"/>
        <path d="M13 4.03613H2.81396V6.02409H13V4.03613Z"/>
        <path d="M13 0H2.81396V1.98795H13V0Z"/>
        <path d="M1.85712 8.01205H0V10H1.85712V8.01205Z"/>
        <path d="M1.85712 4.03613H0V6.02409H1.85712V4.03613Z"/>
        <path d="M1.85712 0H0V1.98795H1.85712V0Z"/>
    </symbol>

    <symbol id="folder-add" viewBox="0 0 16 16">
        <path d="m.5 3 .04.87a1.99 1.99 0 0 0-.342 1.311l.637 7A2 2 0 0 0 2.826 14H9v-1H2.826a1 1 0 0 1-.995-.91l-.637-7A1 1 0 0 1 2.19 4h11.62a1 1 0 0 1 .996 1.09L14.54 8h1.005l.256-2.819A2 2 0 0 0 13.81 3H9.828a2 2 0 0 1-1.414-.586l-.828-.828A2 2 0 0 0 6.172 1H2.5a2 2 0 0 0-2 2zm5.672-1a1 1 0 0 1 .707.293L7.586 3H2.19c-.24 0-.47.042-.683.12L1.5 2.98a1 1 0 0 1 1-.98h3.672z"/>
        <path d="M13.5 10a.5.5 0 0 1 .5.5V12h1.5a.5.5 0 1 1 0 1H14v1.5a.5.5 0 1 1-1 0V13h-1.5a.5.5 0 0 1 0-1H13v-1.5a.5.5 0 0 1 .5-.5z"/>
    </symbol>
    <symbol id="file-add" viewBox="0 0 16 16">
        <path d="M8 6.5a.5.5 0 0 1 .5.5v1.5H10a.5.5 0 0 1 0 1H8.5V11a.5.5 0 0 1-1 0V9.5H6a.5.5 0 0 1 0-1h1.5V7a.5.5 0 0 1 .5-.5z"/>
        <path d="M14 4.5V14a2 2 0 0 1-2 2H4a2 2 0 0 1-2-2V2a2 2 0 0 1 2-2h5.5L14 4.5zm-3 0A1.5 1.5 0 0 1 9.5 3V1H4a1 1 0 0 0-1 1v12a1 1 0 0 0 1 1h8a1 1 0 0 0 1-1V4.5h-2z"/>
    </symbol>
    <symbol id="file-donwload" viewBox="0 0 16 16">
        <path d="M8.5 6.5a.5.5 0 0 0-1 0v3.793L6.354 9.146a.5.5 0 1 0-.708.708l2 2a.5.5 0 0 0 .708 0l2-2a.5.5 0 0 0-.708-.708L8.5 10.293V6.5z"/>
        <path d="M14 14V4.5L9.5 0H4a2 2 0 0 0-2 2v12a2 2 0 0 0 2 2h8a2 2 0 0 0 2-2zM9.5 3A1.5 1.5 0 0 0 11 4.5h2V14a1 1 0 0 1-1 1H4a1 1 0 0 1-1-1V2a1 1 0 0 1 1-1h5.5v2z"/>
    </symbol>
    <symbol id="folder-donwload" viewBox="0 0 16 16">
        <path d="m11.798 8.271-3.182 1.97c-.27.166-.616-.036-.616-.372V9.1s-2.571-.3-4 2.4c.571-4.8 3.143-4.8 4-4.8v-.769c0-.336.346-.538.616-.371l3.182 1.969c.27.166.27.576 0 .742z"/>
        <path d="m.5 3 .04.87a1.99 1.99 0 0 0-.342 1.311l.637 7A2 2 0 0 0 2.826 14h10.348a2 2 0 0 0 1.991-1.819l.637-7A2 2 0 0 0 13.81 3H9.828a2 2 0 0 1-1.414-.586l-.828-.828A2 2 0 0 0 6.172 1H2.5a2 2 0 0 0-2 2zm.694 2.09A1 1 0 0 1 2.19 4h11.62a1 1 0 0 1 .996 1.09l-.636 7a1 1 0 0 1-.996.91H2.826a1 1 0 0 1-.995-.91l-.637-7zM6.172 2a1 1 0 0 1 .707.293L7.586 3H2.19c-.24 0-.47.042-.683.12L1.5 2.98a1 1 0 0 1 1-.98h3.672z"/>
    </symbol>
    <symbol id="folder-donwload" viewBox="0 0 16 16">
        <path d="m11.798 8.271-3.182 1.97c-.27.166-.616-.036-.616-.372V9.1s-2.571-.3-4 2.4c.571-4.8 3.143-4.8 4-4.8v-.769c0-.336.346-.538.616-.371l3.182 1.969c.27.166.27.576 0 .742z"/>
        <path d="m.5 3 .04.87a1.99 1.99 0 0 0-.342 1.311l.637 7A2 2 0 0 0 2.826 14h10.348a2 2 0 0 0 1.991-1.819l.637-7A2 2 0 0 0 13.81 3H9.828a2 2 0 0 1-1.414-.586l-.828-.828A2 2 0 0 0 6.172 1H2.5a2 2 0 0 0-2 2zm.694 2.09A1 1 0 0 1 2.19 4h11.62a1 1 0 0 1 .996 1.09l-.636 7a1 1 0 0 1-.996.91H2.826a1 1 0 0 1-.995-.91l-.637-7zM6.172 2a1 1 0 0 1 .707.293L7.586 3H2.19c-.24 0-.47.042-.683.12L1.5 2.98a1 1 0 0 1 1-.98h3.672z"/>
    </symbol>

    <symbol id="folder-open-2" viewBox="0 0 16 16">
         <path d="M1 3.5A1.5 1.5 0 0 1 2.5 2h2.764c.958 0 1.76.56 2.311 1.184C7.985 3.648 8.48 4 9 4h4.5A1.5 1.5 0 0 1 15 5.5v.64c.57.265.94.876.856 1.546l-.64 5.124A2.5 2.5 0 0 1 12.733 15H3.266a2.5 2.5 0 0 1-2.481-2.19l-.64-5.124A1.5 1.5 0 0 1 1 6.14V3.5zM2 6h12v-.5a.5.5 0 0 0-.5-.5H9c-.964 0-1.71-.629-2.174-1.154C6.374 3.334 5.82 3 5.264 3H2.5a.5.5 0 0 0-.5.5V6zm-.367 1a.5.5 0 0 0-.496.562l.64 5.124A1.5 1.5 0 0 0 3.266 14h9.468a1.5 1.5 0 0 0 1.489-1.314l.64-5.124A.5.5 0 0 0 14.367 7H1.633z" fill="#707070"/>
    </symbol>
    <symbol id="info" viewBox="0 0 16 16">
        <path d="M8 15A7 7 0 1 1 8 1a7 7 0 0 1 0 14zm0 1A8 8 0 1 0 8 0a8 8 0 0 0 0 16z" fill="#707070"/>
        <path d="m8.93 6.588-2.29.287-.082.38.45.083c.294.07.352.176.288.469l-.738 3.468c-.194.897.105 1.319.808 1.319.545 0 1.178-.252 1.465-.598l.088-.416c-.2.176-.492.246-.686.246-.275 0-.375-.193-.304-.533L8.93 6.588zM9 4.5a1 1 0 1 1-2 0 1 1 0 0 1 2 0z" fill="#707070"/>
    </symbol>
    <symbol id="hearth-2" viewBox="0 0 16 16">
         <path d="m8 2.748-.717-.737C5.6.281 2.514.878 1.4 3.053c-.523 1.023-.641 2.5.314 4.385.92 1.815 2.834 3.989 6.286 6.357 3.452-2.368 5.365-4.542 6.286-6.357.955-1.886.838-3.362.314-4.385C13.486.878 10.4.28 8.717 2.01L8 2.748zM8 15C-7.333 4.868 3.279-3.04 7.824 1.143c.06.055.119.112.176.171a3.12 3.12 0 0 1 .176-.17C12.72-3.042 23.333 4.867 8 15z" fill="#707070"/>
    </symbol>
    <symbol id="trash-2" viewBox="0 0 16 16">
        <path d="M5.5 5.5A.5.5 0 0 1 6 6v6a.5.5 0 0 1-1 0V6a.5.5 0 0 1 .5-.5zm2.5 0a.5.5 0 0 1 .5.5v6a.5.5 0 0 1-1 0V6a.5.5 0 0 1 .5-.5zm3 .5a.5.5 0 0 0-1 0v6a.5.5 0 0 0 1 0V6z" fill="#707070"/>
        <path fill-rule="evenodd" d="M14.5 3a1 1 0 0 1-1 1H13v9a2 2 0 0 1-2 2H5a2 2 0 0 1-2-2V4h-.5a1 1 0 0 1-1-1V2a1 1 0 0 1 1-1H6a1 1 0 0 1 1-1h2a1 1 0 0 1 1 1h3.5a1 1 0 0 1 1 1v1zM4.118 4 4 4.059V13a1 1 0 0 0 1 1h6a1 1 0 0 0 1-1V4.059L11.882 4H4.118zM2.5 3V2h11v1h-11z" fill="#707070"/>
    </symbol>
    <symbol id="link" viewBox="0 0 16 16">
        <path d="M6.354 5.5H4a3 3 0 0 0 0 6h3a3 3 0 0 0 2.83-4H9c-.086 0-.17.01-.25.031A2 2 0 0 1 7 10.5H4a2 2 0 1 1 0-4h1.535c.218-.376.495-.714.82-1z" fill="#707070"/>
        <path d="M9 5.5a3 3 0 0 0-2.83 4h1.098A2 2 0 0 1 9 6.5h3a2 2 0 1 1 0 4h-1.535a4.02 4.02 0 0 1-.82 1H12a3 3 0 1 0 0-6H9z" fill="#707070"/>
    </symbol>
    <symbol id="donwload-2" viewBox="0 0 16 16">
        <path d="M7 0C10.8599 0 14 3.14007 14 7C14 10.8599 10.8599 14 7 14C3.14007 14 0 10.8599 0 7C0 3.14007 3.14007 0 7 0ZM4.25425 8.57907L6.587 10.9118C6.64068 10.9661 6.70543 11.0086 6.77718 11.0384C6.84835 11.0676 6.92418 11.0833 7 11.0833C7.07582 11.0833 7.15168 11.0676 7.22282 11.0384C7.29457 11.0086 7.35932 10.9661 7.413 10.9118L9.74575 8.57907C9.97382 8.351 9.97382 7.98232 9.74575 7.75425C9.51768 7.52618 9.149 7.52618 8.92093 7.75425L7.58335 9.09182L7.58335 3.5C7.58335 3.178 7.3226 2.91668 7.00003 2.91668C6.67745 2.91668 6.4167 3.178 6.4167 3.5L6.4167 9.09182L5.07913 7.75425C4.85105 7.52618 4.48238 7.52618 4.2543 7.75425C4.02618 7.98232 4.02618 8.351 4.25425 8.57907Z" fill="#707070"/>
    </symbol>
    <symbol id="donwload-3" viewBox="0 0 16 16">
        <path d="M.5 9.9a.5.5 0 0 1 .5.5v2.5a1 1 0 0 0 1 1h12a1 1 0 0 0 1-1v-2.5a.5.5 0 0 1 1 0v2.5a2 2 0 0 1-2 2H2a2 2 0 0 1-2-2v-2.5a.5.5 0 0 1 .5-.5z" fill="#707070"/>
        <path d="M7.646 11.854a.5.5 0 0 0 .708 0l3-3a.5.5 0 0 0-.708-.708L8.5 10.293V1.5a.5.5 0 0 0-1 0v8.793L5.354 8.146a.5.5 0 1 0-.708.708l3 3z" fill="#707070"/>
    </symbol>
    <symbol id="edit" viewBox="0 0 1024 1024">
         <path d="M880 836H144c-17.7 0-32 14.3-32 32v36c0 4.4 3.6 8 8 8h784c4.4 0 8-3.6 8-8v-36c0-17.7-14.3-32-32-32zm-622.3-84c2 0 4-.2 6-.5L431.9 722c2-.4 3.9-1.3 5.3-2.8l423.9-423.9a9.96 9.96 0 0 0 0-14.1L694.9 114.9c-1.9-1.9-4.4-2.9-7.1-2.9s-5.2 1-7.1 2.9L256.8 538.8c-1.5 1.5-2.4 3.3-2.8 5.3l-29.5 168.2a33.5 33.5 0 0 0 9.4 29.8c6.6 6.4 14.9 9.9 23.8 9.9z" fill="#707070"/>
    </symbol>
    <symbol id="move" viewBox="0 0 16 16">
        <path fill-rule="evenodd" d="M7.646.146a.5.5 0 0 1 .708 0l2 2a.5.5 0 0 1-.708.708L8.5 1.707V5.5a.5.5 0 0 1-1 0V1.707L6.354 2.854a.5.5 0 1 1-.708-.708l2-2zM8 10a.5.5 0 0 1 .5.5v3.793l1.146-1.147a.5.5 0 0 1 .708.708l-2 2a.5.5 0 0 1-.708 0l-2-2a.5.5 0 0 1 .708-.708L7.5 14.293V10.5A.5.5 0 0 1 8 10zM.146 8.354a.5.5 0 0 1 0-.708l2-2a.5.5 0 1 1 .708.708L1.707 7.5H5.5a.5.5 0 0 1 0 1H1.707l1.147 1.146a.5.5 0 0 1-.708.708l-2-2zM10 8a.5.5 0 0 1 .5-.5h3.793l-1.147-1.146a.5.5 0 0 1 .708-.708l2 2a.5.5 0 0 1 0 .708l-2 2a.5.5 0 0 1-.708-.708L14.293 8.5H10.5A.5.5 0 0 1 10 8z" fill="#707070"/>
    </symbol>
    <symbol id="copy" viewBox="0 0 426.667 426.667">
        <path d="M383.168,113.227c-0.537-1.284-1.319-2.451-2.304-3.435L274.197,3.125c-2.002-1.991-4.707-3.114-7.531-3.125H96
			c-5.891,0-10.667,4.776-10.667,10.667v32h-32c-5.891,0-10.667,4.776-10.667,10.667V416c0,5.891,4.776,10.667,10.667,10.667
			h277.333c5.891,0,10.667-4.776,10.667-10.667v-32h32c5.891,0,10.667-4.776,10.667-10.667v-256
			C383.997,115.923,383.714,114.527,383.168,113.227z M277.333,36.416l70.251,70.251h-70.251V36.416z M320,405.333H64V64h21.333
			v309.333C85.333,379.224,90.109,384,96,384h224V405.333z M362.667,362.667h-256V21.333H256v96c0,5.891,4.776,10.667,10.667,10.667
			h96V362.667z" fill="#707070"
        />
    </symbol>
    <symbol id="search" viewBox="0 0 16 16">
        <path d="M11.742 10.344a6.5 6.5 0 1 0-1.397 1.398h-.001c.03.04.062.078.098.115l3.85 3.85a1 1 0 0 0 1.415-1.414l-3.85-3.85a1.007 1.007 0 0 0-.115-.1zM12 6.5a5.5 5.5 0 1 1-11 0 5.5 5.5 0 0 1 11 0z" fill="#707070"/>
    </symbol>
    <symbol id="download-arrow" viewBox="0 0 16 16">
        <path fill-rule="evenodd" d="M1 8a7 7 0 1 0 14 0A7 7 0 0 0 1 8zm15 0A8 8 0 1 1 0 8a8 8 0 0 1 16 0zm-7.5 3.5a.5.5 0 0 1-1 0V5.707L5.354 7.854a.5.5 0 1 1-.708-.708l3-3a.5.5 0 0 1 .708 0l3 3a.5.5 0 0 1-.708.708L8.5 5.707V11.5z" fill="#2ba6de"/>
    </symbol>
    <symbol id="add" viewBox="0 0 16 16">
        <path d="M13.6595 2.34052C10.5387 -0.780175 5.46118 -0.780175 2.34048 2.34052C-0.78016 5.46116 -0.78016 10.5388 2.34048 13.6595C3.90083 15.2198 5.95043 16 8.00003 16C10.0496 16 12.0992 15.2198 13.6596 13.6595C16.7802 10.5388 16.7802 5.46116 13.6595 2.34052ZM3.14899 12.851C0.474143 10.1762 0.474143 5.82387 3.14899 3.14903C4.48644 1.81164 6.2432 1.14288 7.99996 1.14288C9.75673 1.14288 11.5136 1.81158 12.8509 3.14903C15.5258 5.82387 15.5258 10.1762 12.8509 12.851C10.1761 15.5258 5.82383 15.5258 3.14899 12.851Z" fill="#1DB07B"/>
        <path d="M12.375 7.42834H8.57122V3.62452C8.57122 3.30876 8.31529 3.05283 7.99952 3.05283C7.68376 3.05283 7.42783 3.30876 7.42783 3.62452V7.42834H3.624C3.30824 7.42834 3.05231 7.68426 3.05231 8.00003C3.05231 8.3158 3.30824 8.57173 3.624 8.57173H7.42783V12.3755C7.42783 12.6913 7.68376 12.9472 7.99952 12.9472C8.31529 12.9472 8.57122 12.6913 8.57122 12.3755V8.57173H12.375C12.6908 8.57173 12.9467 8.3158 12.9467 8.00003C12.9467 7.68426 12.6908 7.42834 12.375 7.42834Z" fill="#1DB07B"/>
    </symbol>
    <symbol id="dots-vertical" viewBox="0 0 16 16">
        <path d="M9.5 13a1.5 1.5 0 1 1-3 0 1.5 1.5 0 0 1 3 0zm0-5a1.5 1.5 0 1 1-3 0 1.5 1.5 0 0 1 3 0zm0-5a1.5 1.5 0 1 1-3 0 1.5 1.5 0 0 1 3 0z"/>
    </symbol>
</svg>